<svg version="1.1" id="Layer_1" xmlns="http://www.w3.org/2000/svg" xmlns:xlink="http://www.w3.org/1999/xlink" x="0px" y="0px"
	 width="100%" viewBox="0 0 1024 1024" enable-background="new 0 0 1024 1024" xml:space="preserve">
<path fill="#000000" opacity="1.000000" stroke="none" 
	d="
M490.739258,773.868530 
	C488.676758,744.716431 482.761780,716.853333 472.736389,689.894470 
	C464.960968,668.985840 454.784912,649.419189 439.982513,632.502014 
	C430.229248,621.355347 418.588043,612.522888 406.093628,604.727112 
	C391.371002,595.541077 377.179993,585.699463 364.631317,573.566284 
	C350.426056,559.831421 343.634979,543.282654 343.525787,523.579712 
	C343.335052,489.168640 362.294434,466.559906 388.997864,448.559967 
	C389.369202,448.309601 389.950287,448.370453 390.818634,448.218811 
	C394.052612,456.714813 396.663696,465.493744 401.246338,473.462769 
	C413.949738,495.553314 431.350494,511.878723 456.424194,518.904907 
	C464.951141,521.294312 473.737030,522.475525 482.513123,522.543762 
	C514.841614,522.795105 547.176636,522.917175 579.501953,522.510742 
	C592.368835,522.348999 605.041626,520.205139 615.653748,511.695038 
	C620.255920,508.004486 624.120239,503.624481 627.577759,498.962769 
	C637.508606,485.573456 650.988708,477.425842 666.360962,471.969055 
	C691.466858,463.057068 717.336182,460.155914 743.898438,461.449493 
	C758.315918,462.151642 772.874573,462.567902 787.039001,458.581024 
	C798.167847,455.448547 807.272156,449.332703 813.837463,439.715820 
	C820.391785,430.115021 820.337341,422.725189 813.706909,412.967010 
	C805.615601,401.058624 794.539368,392.169586 783.307678,383.538361 
	C747.710754,356.183105 709.534180,333.349609 667.160583,317.962799 
	C641.294128,308.570099 614.661926,302.380463 587.478394,298.260437 
	C561.038330,294.253143 534.433716,293.345062 507.826294,294.525696 
	C478.573059,295.823669 449.485901,299.259094 421.308563,307.733673 
	C386.462708,318.213837 358.853088,339.041809 336.707733,367.681824 
	C312.893677,398.479919 297.506165,433.641998 282.420502,469.113770 
	C278.179230,479.086487 279.275208,487.162140 283.401794,496.477783 
	C298.664551,530.932861 320.546295,560.649414 346.803680,587.364075 
	C362.566620,603.401489 378.974762,618.807434 393.100525,636.412292 
	C423.307861,674.059509 442.839203,716.514709 451.059479,764.098206 
	C452.131409,770.303162 452.510864,776.628174 453.196838,782.899109 
	C453.536285,786.002563 452.975372,787.798584 448.997498,787.704407 
	C435.839142,787.392761 422.670410,787.408264 409.507050,787.501099 
	C406.280762,787.523865 405.014709,786.797302 404.474701,783.237366 
	C398.546539,744.156860 382.598541,709.752075 355.514282,680.791565 
	C342.266754,666.626343 326.755157,655.020508 311.578552,643.053406 
	C290.056885,626.083008 269.947113,607.661926 253.310028,585.717224 
	C252.323990,584.416626 251.424820,582.665833 249.467377,582.970947 
	C247.506088,583.276672 247.115601,585.270081 246.632065,586.772400 
	C242.149643,600.698547 238.038116,614.732300 234.322067,628.887512 
	C233.283829,632.842346 234.128906,635.886475 236.471237,639.037720 
	C247.457947,653.818542 260.403137,666.736694 273.847260,679.242004 
	C288.509827,692.880737 305.291199,703.942993 319.891632,717.649963 
	C339.244232,735.818420 353.079193,757.454285 361.363037,782.653748 
	C361.814911,784.028198 362.755066,785.398560 361.723083,787.071350 
	C359.612579,788.192749 357.255768,787.369812 354.991516,787.386047 
	C334.663330,787.532349 314.334381,787.569214 294.006073,787.702515 
	C292.026245,787.715515 290.495605,787.435364 289.390656,785.541687 
	C279.770905,769.055847 265.744873,756.882385 250.576630,745.775452 
	C239.824768,737.902344 229.277466,729.750000 218.630997,721.732727 
	C213.380997,717.779236 212.053864,718.296387 210.306870,724.758362 
	C205.014404,744.334900 199.604797,763.880432 194.454865,783.494202 
	C193.596786,786.762207 192.016815,787.775696 188.888977,787.705811 
	C180.571182,787.519836 172.227448,787.089966 163.934067,787.523315 
	C148.994339,788.304016 139.985565,774.882019 142.177460,761.108459 
	C145.135117,742.522766 150.955322,724.601562 155.969391,706.515015 
	C175.872025,634.722656 196.429825,563.117065 220.730957,492.661865 
	C236.941879,445.662231 255.900696,399.907074 282.506104,357.588867 
	C319.210388,299.207458 371.053162,262.358002 438.085663,246.680771 
	C458.822144,241.831024 479.794312,238.860886 501.082092,237.440720 
	C519.080261,236.240021 537.095703,236.003723 555.003784,236.892166 
	C619.735779,240.103638 680.876953,256.961121 738.070923,287.606537 
	C770.165222,304.803253 800.733337,324.333954 828.226685,348.375061 
	C842.367554,360.740387 855.111694,374.364014 863.423584,391.428436 
	C879.172180,423.760376 874.614929,453.917389 852.033691,481.246735 
	C834.038635,503.025452 810.490356,515.723145 782.625610,520.361145 
	C767.312744,522.909973 751.869568,523.321106 736.377625,523.475769 
	C724.915222,523.590210 713.457092,524.529724 702.167053,526.745178 
	C685.973267,529.922852 672.405762,538.154846 660.448059,549.142212 
	C635.510376,572.056030 605.578308,581.365417 572.368958,582.505737 
	C565.231812,582.750854 558.090210,583.302673 550.932190,583.420959 
	C543.200500,583.548767 539.206238,588.221436 540.488647,595.824707 
	C543.908142,616.097717 547.605286,636.324707 550.923645,656.613892 
	C554.350708,677.567993 557.892822,698.509766 560.370544,719.607910 
	C561.976379,733.281494 563.386536,746.980469 565.187500,760.628113 
	C567.331055,776.871704 557.287842,788.401978 540.824158,787.766663 
	C525.993225,787.194336 511.167297,787.482300 496.341370,787.551392 
	C492.960052,787.567139 491.442902,786.931213 491.570526,783.256226 
	C491.673370,780.294495 491.060669,777.307800 490.739258,773.868530 
z"/>
<path fill="#000000" opacity="1.000000" stroke="none" 
	d="
M610.284485,346.656189 
	C630.540649,344.871002 642.360718,357.784149 644.819519,371.271759 
	C646.959839,383.013000 644.197144,393.635590 634.765686,401.410461 
	C624.632568,409.763794 612.917114,411.080719 601.077332,405.684448 
	C589.855042,400.569550 584.274231,391.310089 583.580811,378.827606 
	C582.573242,360.689941 595.862488,348.168427 610.284485,346.656189 
z"/>
<path fill="#000000" opacity="1.000000" stroke="none" 
	d="
M954.401489,922.411865 
	C977.428650,895.372864 992.413147,864.806396 1000.042603,830.454956 
	C1005.249695,807.010559 1005.899841,783.298645 1006.011292,759.464294 
	C1006.110962,738.148010 1005.261108,716.818726 1006.664124,695.515381 
	C1006.718872,694.684570 1006.763306,693.849304 1006.888672,693.027710 
	C1007.068726,691.848633 1007.343445,690.573303 1008.823181,690.524109 
	C1010.593811,690.465210 1010.977539,691.888489 1011.080688,693.253723 
	C1011.394348,697.405090 1011.852173,701.564331 1011.835205,705.718750 
	C1011.721130,733.694153 1012.397217,761.710144 1011.124939,789.635803 
	C1008.442749,848.507507 987.671387,899.989807 944.920166,941.461731 
	C914.670532,970.806091 878.742310,989.830017 837.339661,998.369812 
	C819.815735,1001.984314 802.113220,1003.352051 784.274902,1003.347107 
	C756.617798,1003.339355 728.960693,1003.222412 701.303589,1003.208130 
	C696.708008,1003.205750 692.415405,1002.444214 688.319336,999.360046 
	C690.776306,997.450195 693.483276,997.917480 695.966431,997.907715 
	C727.788757,997.782715 759.613953,997.962036 791.433228,997.603516 
	C835.172363,997.110718 875.475830,985.037231 911.896851,960.587280 
	C927.756042,949.940674 941.742188,937.169495 954.401489,922.411865 
z"/>
<path fill="#000000" opacity="1.000000" stroke="none" 
	d="
M285.827301,1003.166382 
	C262.873932,1003.224976 240.419815,1003.676941 217.959000,1001.423645 
	C129.789078,992.578369 56.327454,936.985657 29.547220,851.662903 
	C23.432421,832.180969 20.033836,812.247986 19.235498,791.857849 
	C19.195717,790.841736 19.203648,789.847473 20.417858,788.926270 
	C23.609945,788.907410 23.975203,791.372192 24.279652,793.918213 
	C25.917885,807.618347 27.371462,821.355286 30.763676,834.769287 
	C43.354057,884.556152 69.481857,925.452332 111.202873,955.801575 
	C141.022308,977.493286 174.554245,989.850098 211.056488,994.932922 
	C235.617218,998.352966 260.248047,997.351440 284.866394,997.896912 
	C287.686615,997.959412 290.503448,998.309692 293.313599,998.605103 
	C294.096222,998.687378 294.973816,998.829163 295.518921,1000.071228 
	C293.360779,1003.562683 289.648895,1002.875977 285.827301,1003.166382 
z"/>
<path fill="#000000" opacity="1.000000" stroke="none" 
	d="
M77.721855,87.734238 
	C112.875427,51.098240 155.508560,29.638161 205.086487,21.485624 
	C214.122040,19.999834 223.191940,18.960979 232.310608,18.278177 
	C234.417389,18.120420 237.190231,17.590147 237.556198,20.548368 
	C237.913147,23.433777 235.071915,23.231852 233.234695,23.447849 
	C218.377457,25.194580 203.481262,26.662039 188.929688,30.366497 
	C143.224533,42.001850 104.346199,64.696198 73.978401,101.224007 
	C47.968403,132.510056 32.623516,168.528381 26.638756,208.593063 
	C24.053585,225.899368 23.734432,243.411896 23.103897,260.877441 
	C22.996408,263.854828 23.088705,266.839386 22.852098,269.813904 
	C9.874819,224.315338 27.985083,138.501419 77.721855,87.734238 
z"/>
<path fill="#000000" opacity="1.000000" stroke="none" 
	d="
M999.258423,165.973709 
	C1003.733154,180.358673 1007.061646,194.585907 1008.719849,209.180069 
	C1009.060303,212.176590 1009.337952,215.135849 1006.456726,217.287903 
	C1004.192810,216.088242 1004.093323,214.001266 1003.829895,212.084686 
	C994.230713,142.251709 959.358521,89.062645 898.747009,52.984631 
	C874.822449,38.743942 848.542358,31.039402 821.296631,26.218443 
	C817.755188,25.591814 813.473511,25.903379 811.636169,21.538403 
	C813.013489,19.371214 814.962402,19.945753 816.693665,20.167173 
	C872.028259,27.244122 919.042603,50.635731 956.527771,92.215225 
	C975.832886,113.628929 989.736511,138.350098 999.258423,165.973709 
z"/>
</svg>